<?xml version="1.0" encoding="UTF-8" standalone="no"?>
<!DOCTYPE svg PUBLIC "-//W3C//DTD SVG 1.1//EN" "http://www.w3.org/Graphics/SVG/1.1/DTD/svg11.dtd">
<svg width="100%" height="100%" viewBox="0 0 106 101" version="1.1" xmlns="http://www.w3.org/2000/svg" xmlns:xlink="http://www.w3.org/1999/xlink" xml:space="preserve" xmlns:serif="http://www.serif.com/" style="fill-rule:evenodd;clip-rule:evenodd;stroke-linejoin:round;stroke-miterlimit:2;">
    <g transform="matrix(1,0,0,1,-631.23,-1327.24)">
        <g transform="matrix(1.09966,0,0,1.09966,-62.266,240.765)">
            <g transform="matrix(2.5897,0,0,2.5897,-1744.97,784.803)">
                <text x="928.948px" y="107.323px" style="font-family:'Exo2-SemiBold', 'Exo 2';font-weight:600;font-size:5.406px;fill:rgb(148,206,26);">IV</text>
                <text x="934.884px" y="107.323px" style="font-family:'Exo2-SemiBold', 'Exo 2';font-weight:600;font-size:5.406px;fill:rgb(148,206,26);">–</text>
                <text x="939.052px" y="107.323px" style="font-family:'Exo2-SemiBold', 'Exo 2';font-weight:600;font-size:5.406px;fill:rgb(148,206,26);">V</text>
                <text x="916.914px" y="113.543px" style="font-family:'Exo2-SemiBold', 'Exo 2';font-weight:600;font-size:5.406px;fill:rgb(148,206,26);">DANGER CLASS</text>
            </g>
            <g transform="matrix(0.896331,0,0,0.896331,-380.47,-109.266)">
                <g transform="matrix(0.212553,0,0,0.212553,1150.62,1224.19)">
                    <path d="M260.164,32.246C260.164,24.53 249.151,18.275 235.568,18.275L183.843,18.275L183.843,9.136C183.843,4.089 172.83,-0.001 159.247,-0.001L137.485,-0.001C123.902,-0.001 112.889,4.095 112.889,9.136L112.889,18.275L54.692,18.275C41.109,18.275 30.096,24.535 30.096,32.246L30.096,46.216L260.163,46.216C260.164,46.216 260.164,39.962 260.164,32.246Z" style="fill:rgb(148,206,26);fill-rule:nonzero;"/>
                </g>
                <g transform="matrix(0.212553,0,0,0.212553,1150.62,1224.19)">
                    <path d="M69.749,290.26L220.514,290.26C234.097,290.26 245.11,279.247 245.11,265.664L245.11,56.971L45.153,56.971L45.153,265.664C45.153,279.247 56.166,290.26 69.749,290.26Z" style="fill:rgb(148,206,26);fill-rule:nonzero;"/>
                </g>
                <g transform="matrix(49.1774,0,0,49.1774,1174.71,1278.48)">
                    <path d="M0.181,-0.217L0.096,-0.217L0.071,-0.714L0.206,-0.714L0.181,-0.217ZM0.065,-0.061C0.065,-0.085 0.071,-0.103 0.084,-0.116C0.097,-0.128 0.115,-0.135 0.138,-0.135C0.161,-0.135 0.179,-0.128 0.191,-0.115C0.204,-0.102 0.21,-0.084 0.21,-0.061C0.21,-0.038 0.204,-0.02 0.191,-0.006C0.179,0.007 0.161,0.014 0.138,0.014C0.115,0.014 0.097,0.008 0.084,-0.005C0.071,-0.018 0.065,-0.037 0.065,-0.061Z" style="fill:rgb(253,255,249);fill-rule:nonzero;"/>
                </g>
            </g>
        </g>
    </g>
</svg>
