<?xml version="1.0" encoding="UTF-8" standalone="no"?>
<!DOCTYPE svg PUBLIC "-//W3C//DTD SVG 1.1//EN" "http://www.w3.org/Graphics/SVG/1.1/DTD/svg11.dtd">
<svg width="100%" height="100%" viewBox="0 0 74 71" version="1.1" xmlns="http://www.w3.org/2000/svg" xmlns:xlink="http://www.w3.org/1999/xlink" xml:space="preserve" xmlns:serif="http://www.serif.com/" style="fill-rule:evenodd;clip-rule:evenodd;stroke-linejoin:round;stroke-miterlimit:2;">
    <g transform="matrix(1,0,0,1,-391.397,-1341.45)">
        <g transform="matrix(1.09966,0,0,1.09966,-40.5948,248.424)">
            <g transform="matrix(0.158876,0,0,0.158876,392.84,992.599)">
                <path d="M417.795,260.908C408.236,272.597 393.767,279.539 378.453,279.401C378.453,279.401 280.512,279.401 280.512,279.425L280.561,250.422C280.569,245.935 278.301,245.122 275.554,248.674C262.873,265.077 230.562,308.817 230.562,328.927C230.562,349.021 262.873,392.769 275.554,409.172C278.301,412.724 280.569,411.911 280.561,407.424L280.512,378.535L330.43,378.535C342.468,378.624 354.19,372.439 360.628,361.294L418.349,261.272C420.591,257.38 420.64,257.428 417.795,260.908Z" style="fill:rgb(148,206,26);fill-rule:nonzero;"/>
            </g>
            <g transform="matrix(0.158876,0,0,0.158876,392.84,992.599)">
                <path d="M358.221,54.629L333.193,69.139C333.209,69.139 320.667,47.241 315.66,38.567C308.572,26.382 295.542,18.709 281.447,18.75C267.336,18.766 254.281,26.497 247.356,38.771C247.332,38.795 235.846,58.564 224.303,78.682L247.6,119.024L222.271,133.216C218.361,135.411 218.768,137.752 223.214,138.345C243.763,141.125 297.81,147.213 315.229,137.158C332.624,127.103 354.36,77.283 362.237,58.099C363.935,53.946 362.106,52.377 358.221,54.629Z" style="fill:rgb(148,206,26);fill-rule:nonzero;"/>
            </g>
            <g transform="matrix(0.158876,0,0,0.158876,392.84,992.599)">
                <path d="M334.347,153.041L318.919,161.95C299.475,173.176 292.818,198.033 304.052,217.468L333.754,268.914C356.953,268.914 379.827,268.922 379.851,268.922C393.987,269.028 407.139,261.476 414.219,249.275C421.258,237.074 421.193,221.882 414.032,209.721C414.032,209.705 403.042,190.684 389.882,167.899C378.648,148.465 353.782,141.816 334.347,153.041Z" style="fill:rgb(148,206,26);fill-rule:nonzero;"/>
            </g>
            <g transform="matrix(0.158876,0,0,0.158876,392.84,992.599)">
                <path d="M4.611,257.55L62.356,357.572C64.599,361.466 64.534,361.466 62.941,357.271C57.617,343.16 58.82,327.146 66.591,313.921L115.574,229.099L140.667,243.649C144.552,245.901 146.39,244.34 144.683,240.186C136.823,221.003 115.087,171.15 97.684,161.103C80.256,151.056 26.209,157.161 5.669,159.941C1.215,160.543 0.784,162.916 4.677,165.151L29.778,179.555L4.79,222.801C-1.314,233.165 -1.81,246.398 4.611,257.55Z" style="fill:rgb(148,206,26);fill-rule:nonzero;"/>
            </g>
            <g transform="matrix(0.158876,0,0,0.158876,392.84,992.599)">
                <path d="M98.041,280.473C86.466,300.567 75.013,320.384 74.996,320.417C67.851,332.561 67.77,347.713 74.842,359.938C81.898,372.172 95.058,379.715 109.161,379.609L157.469,379.609C179.92,379.609 198.12,361.409 198.12,338.966L198.12,321.116C198.12,298.673 179.928,280.473 157.477,280.473L98.041,280.473Z" style="fill:rgb(148,206,26);fill-rule:nonzero;"/>
            </g>
            <g transform="matrix(0.158876,0,0,0.158876,392.84,992.599)">
                <path d="M158.119,8.597C145.243,8.597 134.392,15.848 128.133,26.09C122.378,35.422 108.259,59.905 96.163,81.007C85.002,100.483 91.774,125.405 111.209,136.631L126.962,145.719C146.406,156.945 171.246,150.271 182.464,130.827C202.493,96.118 231.146,46.461 238.608,33.626C246.298,20.385 258.929,11.606 273.618,9.24C278.056,8.525 278.089,8.598 273.594,8.598C273.594,8.597 158.119,8.597 158.119,8.597Z" style="fill:rgb(148,206,26);fill-rule:nonzero;"/>
            </g>
        </g>
    </g>
</svg>
