<?xml version="1.0" encoding="UTF-8" standalone="no"?>
<!DOCTYPE svg PUBLIC "-//W3C//DTD SVG 1.1//EN" "http://www.w3.org/Graphics/SVG/1.1/DTD/svg11.dtd">
<svg width="100%" height="100%" viewBox="0 0 148 66" version="1.1" xmlns="http://www.w3.org/2000/svg" xmlns:xlink="http://www.w3.org/1999/xlink" xml:space="preserve" xmlns:serif="http://www.serif.com/" style="fill-rule:evenodd;clip-rule:evenodd;stroke-linejoin:round;stroke-miterlimit:2;">
    <g transform="matrix(1,0,0,1,-1396.53,-1344.08)">
        <g transform="matrix(0.560403,0,0,0.560403,1396.53,606.191)">
            <g transform="matrix(3.16987,1.83027,-1.00209,1.73554,37.6614,1258.11)">
                <path d="M24.164,8.91C23.399,8.91 22.779,9.53 22.779,10.295L22.779,25.943C22.779,26.709 23.399,27.328 24.164,27.328L45.628,27.328C46.393,27.328 47.014,26.709 47.014,25.943L47.014,10.295C47.014,9.53 46.393,8.91 45.628,8.91L24.164,8.91Z" style="fill:rgb(148,206,26);fill-rule:nonzero;"/>
            </g>
            <g transform="matrix(1.96227,0,0,1.96227,-5719.86,-620.657)">
                <path d="M3002.79,1046.52L3012.03,1028.79C3012.75,1027.55 3014.33,1027.13 3015.56,1027.84L3048.91,1046.52L3002.79,1046.52Z" style="fill:rgb(148,206,26);fill-rule:nonzero;"/>
            </g>
            <g transform="matrix(1.69182,0.994107,-0.994107,1.69182,-3895.65,-3285.74)">
                <rect x="2956.17" y="1012.67" width="4.426" height="14.719" style="fill:rgb(148,206,26);"/>
            </g>
            <g transform="matrix(3.66032,0,0,3.66032,0,1293.42)">
                <circle cx="10.751" cy="33.246" r="4.858" style="fill:rgb(148,206,26);"/>
            </g>
            <g transform="matrix(3.66032,0,0,3.66032,0,1293.42)">
                <circle cx="36.166" cy="33.246" r="4.858" style="fill:rgb(148,206,26);"/>
            </g>
            <g transform="matrix(3.66032,0,0,3.66032,0,1293.16)">
                <path d="M20.356,12.718C20.356,11.953 19.736,11.333 18.971,11.333L13.478,11.333C9.9,11.333 6.625,13.341 5.003,16.53L2.823,20.815C2.188,22.065 1.856,23.447 1.856,24.849L1.856,29.749L1.385,29.749C0.62,29.75 0,30.37 0,31.134L0,31.839C0,32.604 0.62,33.224 1.385,33.224L4.279,33.224C4.29,29.663 7.189,26.771 10.752,26.771C14.315,26.771 17.214,29.664 17.225,33.224L29.693,33.224C29.697,31.946 30.075,30.753 30.72,29.749L23.19,29.749C21.625,29.749 20.357,28.48 20.357,26.917L20.357,12.717L20.356,12.717L20.356,12.718ZM17.448,21.189L6.17,21.189L7.798,17.868C8.887,15.648 11.144,14.242 13.616,14.242L17.448,14.242L17.448,21.189Z" style="fill:rgb(148,206,26);fill-rule:nonzero;"/>
            </g>
            <g transform="matrix(3.66032,0,0,3.66032,0,1293.16)">
                <path d="M42.639,33.224L44.255,33.224C45.02,33.224 45.641,32.605 45.641,31.839L45.641,31.136C45.641,30.37 45.02,29.751 44.255,29.751L41.611,29.751C42.258,30.755 42.635,31.946 42.639,33.224Z" style="fill:rgb(148,206,26);fill-rule:nonzero;"/>
            </g>
        </g>
    </g>
</svg>
