<?xml version="1.0" encoding="UTF-8" standalone="no"?>
<!DOCTYPE svg PUBLIC "-//W3C//DTD SVG 1.1//EN" "http://www.w3.org/Graphics/SVG/1.1/DTD/svg11.dtd">
<svg width="100%" height="100%" viewBox="0 0 12 14" version="1.1" xmlns="http://www.w3.org/2000/svg" xmlns:xlink="http://www.w3.org/1999/xlink" xml:space="preserve" xmlns:serif="http://www.serif.com/" style="fill-rule:evenodd;clip-rule:evenodd;stroke-linejoin:round;stroke-miterlimit:2;">
    <g transform="matrix(1,0,0,1,-850.854,-4260.8)">
        <g transform="matrix(1,0,0,1,9.58698,446.316)">
            <g transform="matrix(0.228444,0,0,0.228444,820.708,2985.6)">
                <path d="M135.041,3640.3L135.041,3684.02C135.041,3686.87 132.734,3689.17 129.888,3689.17L98.302,3689.17C95.457,3689.17 93.149,3686.87 93.149,3684.02L93.149,3640.3L135.041,3640.3ZM117.053,3628.36C119.898,3628.36 122.206,3629.22 122.206,3630.28L122.206,3632.19L133.042,3632.19C135.888,3632.19 138.195,3633.5 138.195,3635.12C138.195,3636.73 138.195,3638.04 138.195,3638.04L89.995,3638.04L89.995,3635.12C89.995,3633.5 92.302,3632.19 95.148,3632.19L107.34,3632.19L107.34,3630.28C107.34,3629.22 109.648,3628.36 112.493,3628.36L117.053,3628.36Z" style="fill:rgb(148,206,26);fill-rule:nonzero;"/>
            </g>
            <g transform="matrix(0.610615,0,0,0.610615,614.163,1507.36)">
                <rect x="376.819" y="3787.22" width="1.649" height="9.612" style="fill:rgb(66,66,73);"/>
                <g transform="matrix(1,0,0,1,3.29853,0)">
                    <rect x="376.819" y="3787.22" width="1.649" height="9.612" style="fill:rgb(66,66,73);"/>
                </g>
                <g transform="matrix(1,0,0,1,6.59707,0)">
                    <rect x="376.819" y="3787.22" width="1.649" height="9.612" style="fill:rgb(66,66,73);"/>
                </g>
            </g>
        </g>
    </g>
</svg>
