<?xml version="1.0" encoding="UTF-8" standalone="no"?>
<!DOCTYPE svg PUBLIC "-//W3C//DTD SVG 1.1//EN" "http://www.w3.org/Graphics/SVG/1.1/DTD/svg11.dtd">
<svg width="100%" height="100%" viewBox="0 0 14 16" version="1.1" xmlns="http://www.w3.org/2000/svg" xmlns:xlink="http://www.w3.org/1999/xlink" xml:space="preserve" xmlns:serif="http://www.serif.com/" style="fill-rule:evenodd;clip-rule:evenodd;stroke-linejoin:round;stroke-miterlimit:2;">
    <g transform="matrix(1,0,0,1,-962.41,-50.4158)">
        <g transform="matrix(0.160324,0,0,0.160324,847.349,-17.7264)">
            <path d="M721.27,471.973C721.27,471.271 721.446,470.613 721.735,470.02L748.104,496.388L724.861,519.631C722.814,519.212 721.27,517.397 721.27,515.228L721.27,471.973ZM761.335,430.196L798.003,466.865L788.608,476.26L788.608,464.389C788.608,463.676 788.03,463.098 787.317,463.098L736.075,463.098C735.362,463.098 734.784,463.676 734.784,464.389L734.784,476.983L724.666,466.865L761.335,430.196ZM801.4,471.973L801.4,515.228C801.4,517.397 799.856,519.212 797.809,519.631L774.566,496.388L800.935,470.02C801.224,470.613 801.4,471.271 801.4,471.973ZM730.854,519.723L751.146,499.431L759.814,508.098C760.217,508.502 760.765,508.728 761.335,508.728C761.906,508.728 762.453,508.502 762.856,508.098L771.524,499.431L791.815,519.723L730.854,519.723ZM719.475,466.896C718.351,468.285 717.674,470.051 717.674,471.973L717.674,515.228C717.674,519.689 721.304,523.319 725.765,523.319L726.863,523.319L727.061,523.517L727.258,523.319L795.412,523.319L795.609,523.517L795.807,523.319L796.905,523.319C801.366,523.319 804.997,519.689 804.997,515.228L804.997,471.973C804.997,470.051 804.319,468.285 803.195,466.895C803.203,466.334 802.996,465.771 802.568,465.344L762.856,425.632C762.05,424.825 760.621,424.825 759.814,425.632L720.102,465.344C719.674,465.771 719.467,466.335 719.475,466.896Z" style="fill:rgb(148,206,26);fill-rule:nonzero;"/>
        </g>
    </g>
</svg>
