<svg width="100%" height="100%" viewBox="0 0 46 25" version="1.1" xmlns="http://www.w3.org/2000/svg" xmlns:xlink="http://www.w3.org/1999/xlink" xml:space="preserve" xmlns:serif="http://www.serif.com/" style="fill-rule:evenodd;clip-rule:evenodd;stroke-linejoin:round;stroke-miterlimit:2;">
    <g transform="matrix(1,0,0,1,-1400.97,-14.1075)">
        <g transform="matrix(0.894916,0,0,0.894916,160.201,-2.32627)">
            <g transform="matrix(0.110412,0,0,0.110412,1386.46,6.80098)">
                <path d="M448.947,218.475C448.025,217.307 425.892,189.542 387.947,161.665C337.242,124.412 282.07,104.721 228.396,104.721C174.724,104.721 119.552,124.412 68.845,161.665C30.901,189.541 8.768,217.307 7.845,218.475L0,228.397L7.846,238.32C8.769,239.488 30.902,267.254 68.846,295.131C119.553,332.383 174.725,352.074 228.397,352.074C282.07,352.074 337.242,332.383 387.947,295.131C425.892,267.254 448.025,239.488 448.947,238.32L456.795,228.397L448.947,218.475ZM228.396,315.039C180.622,315.039 141.754,276.172 141.754,228.397C141.754,220.912 142.708,213.646 144.501,206.713L124.72,203.384C122.782,211.409 121.754,219.785 121.754,228.397C121.754,259.257 134.936,287.093 155.958,306.584C128.897,296.588 105.886,282.561 88.519,269.875C67.003,254.16 50.878,238.266 41.685,228.397C50.882,218.525 67.005,202.633 88.519,186.919C105.886,174.233 128.898,160.206 155.958,150.209L169.228,165.167C184.726,150.655 205.54,141.755 228.396,141.755C276.17,141.755 315.037,180.622 315.037,228.397C315.037,276.172 276.17,315.039 228.396,315.039ZM368.273,269.875C350.904,282.561 327.894,296.588 300.834,306.584C321.855,287.094 335.037,259.258 335.037,228.396C335.037,197.534 321.855,169.699 300.834,150.208C327.895,160.205 350.904,174.232 368.273,186.918C389.789,202.633 405.914,218.527 415.107,228.395C405.91,238.269 389.787,254.162 368.273,269.875Z" style="fill:rgb(30,75,117);fill-rule:nonzero;"/>
            </g>
            <g transform="matrix(0.110412,0,0,0.110412,1386.46,6.80098)">
                <path d="M173.261,211.555C171.635,216.884 170.754,222.537 170.754,228.398C170.754,260.232 196.561,286.04 228.396,286.04C260.23,286.04 286.037,260.233 286.037,228.398C286.037,196.563 260.23,170.756 228.396,170.756C212.89,170.756 198.825,176.89 188.464,186.85L216.896,218.898L173.261,211.555Z" style="fill:rgb(30,75,117);fill-rule:nonzero;"/>
            </g>
        </g>
    </g>
</svg>
