<?xml version="1.0" encoding="UTF-8" standalone="no"?>
<!DOCTYPE svg PUBLIC "-//W3C//DTD SVG 1.1//EN" "http://www.w3.org/Graphics/SVG/1.1/DTD/svg11.dtd">
<svg width="100%" height="100%" viewBox="0 0 30 30" version="1.1" xmlns="http://www.w3.org/2000/svg" xmlns:xlink="http://www.w3.org/1999/xlink" xml:space="preserve" xmlns:serif="http://www.serif.com/" style="fill-rule:evenodd;clip-rule:evenodd;stroke-linejoin:round;stroke-miterlimit:1.41421;">
    <g transform="matrix(1,0,0,1,-1496.85,-78.684)">
        <g transform="matrix(1,0,0,1,15.1989,-6.144)">
            <g transform="matrix(1.22037,0,0,1.22037,-136.225,46.6138)">
                <g transform="matrix(6.55085,0,0,6.55085,1242.86,-38.528)">
                    <path d="M16.267,12.499C16.267,13.484 15.47,14.278 14.489,14.278C13.506,14.278 12.712,13.484 12.712,12.499C12.712,11.519 13.506,10.724 14.489,10.724C15.47,10.724 16.267,11.519 16.267,12.499Z" style="fill:white;fill-rule:nonzero;stroke:rgb(148,206,26);stroke-width:0.13px;"/>
                </g>
                <g transform="matrix(0.343007,0,0,0.343007,1324.44,29.7361)">
                    <path d="M50.396,16.694L44.418,16.685C37.703,16.685 33.362,21.138 33.362,28.028L33.362,33.259L27.351,33.259C26.834,33.259 26.413,33.678 26.413,34.198L26.413,41.777C26.413,42.294 26.834,42.716 27.351,42.716L33.362,42.716L33.362,61.838C33.362,62.355 33.784,62.777 34.303,62.777L42.142,62.777C42.662,62.777 43.083,62.355 43.083,61.838L43.083,42.716L50.11,42.716C50.629,42.716 51.049,42.294 51.049,41.777L51.053,34.198C51.053,33.95 50.952,33.711 50.777,33.533C50.601,33.358 50.363,33.259 50.112,33.259L43.083,33.259L43.083,28.825C43.083,26.694 43.591,25.612 46.366,25.612L50.393,25.61C50.913,25.61 51.332,25.189 51.332,24.671L51.332,17.636C51.332,17.115 50.913,16.696 50.396,16.694Z" style="fill:none;fill-rule:nonzero;stroke:rgb(148,206,26);stroke-width:2.39px;"/>
                </g>
            </g>
        </g>
    </g>
</svg>
