<?xml version="1.0" encoding="UTF-8" standalone="no"?>
<!DOCTYPE svg PUBLIC "-//W3C//DTD SVG 1.1//EN" "http://www.w3.org/Graphics/SVG/1.1/DTD/svg11.dtd">
<svg width="100%" height="100%" viewBox="0 0 17 14" version="1.1" xmlns="http://www.w3.org/2000/svg" xmlns:xlink="http://www.w3.org/1999/xlink" xml:space="preserve" xmlns:serif="http://www.serif.com/" style="fill-rule:evenodd;clip-rule:evenodd;stroke-linejoin:round;stroke-miterlimit:2;">
    <g transform="matrix(1,0,0,1,-372.953,-4262.11)">
        <g transform="matrix(1,0,0,1,0,435.316)">
            <path d="M385.368,3836.11C385.32,3836.05 385.274,3835.99 385.25,3835.93C384.727,3834.82 383.295,3833.5 380.975,3833.46L380.886,3833.46C378.601,3833.46 377.18,3834.71 376.611,3835.88C376.591,3835.92 376.548,3835.97 376.502,3836.03C376.448,3836.09 376.395,3836.16 376.349,3836.23C375.868,3836.98 375.623,3837.82 375.659,3838.6C375.697,3839.43 376.044,3840.09 376.635,3840.47C376.873,3840.63 377.13,3840.7 377.4,3840.7C377.957,3840.7 378.467,3840.39 379.058,3840.03C379.433,3839.79 379.821,3839.56 380.252,3839.38C380.3,3839.36 380.498,3839.34 380.822,3839.34C381.207,3839.34 381.483,3839.37 381.542,3839.39C381.963,3839.58 382.332,3839.82 382.689,3840.06C383.237,3840.42 383.754,3840.76 384.316,3840.76C384.556,3840.76 384.79,3840.69 385.01,3840.57C386.225,3839.88 386.456,3837.98 385.526,3836.35C385.479,3836.26 385.424,3836.19 385.368,3836.11ZM376.635,3833.89C376.635,3832.52 375.827,3831.45 374.794,3831.45C373.762,3831.45 372.953,3832.52 372.953,3833.89C372.953,3835.26 373.762,3836.33 374.794,3836.33C375.827,3836.33 376.635,3835.26 376.635,3833.89ZM387.243,3831.45C386.21,3831.45 385.402,3832.52 385.402,3833.89C385.402,3835.26 386.211,3836.33 387.243,3836.33C388.275,3836.33 389.084,3835.26 389.084,3833.89C389.084,3832.52 388.276,3831.45 387.243,3831.45ZM378.438,3833.06C379.726,3833.06 380.774,3831.66 380.774,3829.93C380.774,3828.2 379.726,3826.79 378.438,3826.79C377.15,3826.79 376.101,3828.2 376.101,3829.93C376.101,3831.66 377.15,3833.06 378.438,3833.06ZM383.406,3833.06C384.694,3833.06 385.742,3831.66 385.742,3829.93C385.742,3828.2 384.694,3826.79 383.406,3826.79C382.117,3826.79 381.069,3828.2 381.069,3829.93C381.069,3831.66 382.117,3833.06 383.406,3833.06Z" style="fill:white;fill-rule:nonzero;"/>
        </g>
    </g>
</svg>
