<?xml version="1.0" encoding="UTF-8" standalone="no"?>
<!DOCTYPE svg PUBLIC "-//W3C//DTD SVG 1.1//EN" "http://www.w3.org/Graphics/SVG/1.1/DTD/svg11.dtd">
<svg width="100%" height="100%" viewBox="0 0 10 16" version="1.1" xmlns="http://www.w3.org/2000/svg" xmlns:xlink="http://www.w3.org/1999/xlink" xml:space="preserve" xmlns:serif="http://www.serif.com/" style="fill-rule:evenodd;clip-rule:evenodd;stroke-linejoin:round;stroke-miterlimit:2;">
    <g transform="matrix(1,0,0,1,-964.449,-22.7601)">
        <g transform="matrix(0.527367,0,0,0.527367,41.328,-1815.69)">
            <g>
                <g transform="matrix(0.294744,0,0,0.294744,1657.04,3307.86)">
                    <path d="M369.86,639.668C369.846,639.725 369.835,639.784 369.825,639.842C369.124,644.124 368.151,647.652 367.012,650.046C364.124,656.111 350.947,677.755 345.966,685.889C340.984,677.755 327.808,656.111 324.919,650.046C323.78,647.652 322.808,644.124 322.106,639.843C322.097,639.784 322.085,639.726 322.071,639.668C321.595,637.737 321.355,635.754 321.355,633.772C321.355,620.202 332.395,609.161 345.966,609.161C359.536,609.161 370.577,620.202 370.577,633.772C370.577,635.754 370.336,637.737 369.86,639.668ZM374.247,640.655C374.794,638.4 375.072,636.085 375.072,633.772C375.072,617.724 362.015,604.666 345.966,604.666C329.917,604.666 316.859,617.724 316.859,633.772C316.859,636.085 317.137,638.4 317.685,640.655C318.463,645.375 319.531,649.185 320.861,651.978C323.721,657.985 335.758,677.818 341.284,686.852C333.813,687.804 330.346,691.016 330.346,694.043C330.346,697.647 335.233,701.525 345.966,701.525C356.698,701.525 361.585,697.647 361.585,694.043C361.585,691.016 358.118,687.804 350.648,686.852C356.174,677.818 368.209,657.985 371.07,651.978C372.399,649.185 373.469,645.375 374.247,640.655Z" style="fill:rgb(148,206,26);fill-rule:nonzero;"/>
                </g>
                <g transform="matrix(0.294744,0,0,0.294744,1657.04,3307.86)">
                    <path d="M345.966,644.152C339.832,644.152 334.841,639.162 334.841,633.027C334.841,626.894 339.832,621.902 345.966,621.902C352.1,621.902 357.09,626.894 357.09,633.027C357.09,639.162 352.1,644.152 345.966,644.152ZM345.966,617.407C337.353,617.407 330.346,624.414 330.346,633.027C330.346,641.64 337.353,648.647 345.966,648.647C354.579,648.647 361.585,641.64 361.585,633.027C361.585,624.414 354.579,617.407 345.966,617.407Z" style="fill:rgb(148,206,26);fill-rule:nonzero;"/>
                </g>
            </g>
        </g>
    </g>
</svg>
