<?xml version="1.0" encoding="UTF-8" standalone="no"?>
<!DOCTYPE svg PUBLIC "-//W3C//DTD SVG 1.1//EN" "http://www.w3.org/Graphics/SVG/1.1/DTD/svg11.dtd">
<svg width="25" height="32" viewBox="0 0 25 32" version="1.1" xmlns="http://www.w3.org/2000/svg" xmlns:xlink="http://www.w3.org/1999/xlink" xml:space="preserve" xmlns:serif="http://www.serif.com/" style="fill-rule:evenodd;clip-rule:evenodd;stroke-linejoin:round;stroke-miterlimit:2;">
    <g transform="matrix(1,0,0,1,-711.429,-3562.99)">
        <g transform="matrix(0.754955,0,0,0.754955,-4904.24,199.392)">
            <path d="M7454.93,4496.63C7454.93,4496.63 7438.42,4479.29 7438.42,4471.86C7438.42,4462.75 7445.81,4455.36 7454.93,4455.36C7464.03,4455.36 7471.43,4462.75 7471.43,4471.86C7471.43,4479.29 7454.93,4496.63 7454.93,4496.63ZM7454.93,4458.96C7461.39,4458.96 7466.63,4464.21 7466.63,4470.67C7466.63,4477.13 7461.39,4482.37 7454.93,4482.37C7448.47,4482.37 7443.22,4477.13 7443.22,4470.67C7443.22,4464.21 7448.47,4458.96 7454.93,4458.96Z" style="fill:rgb(176,12,12);"/>
        </g>
    </g>
</svg>
