<?xml version="1.0" encoding="UTF-8" standalone="no"?>
<!DOCTYPE svg PUBLIC "-//W3C//DTD SVG 1.1//EN" "http://www.w3.org/Graphics/SVG/1.1/DTD/svg11.dtd">
<svg width="100%" height="100%" viewBox="0 0 29 29" version="1.1" xmlns="http://www.w3.org/2000/svg" xmlns:xlink="http://www.w3.org/1999/xlink" xml:space="preserve" xmlns:serif="http://www.serif.com/" style="fill-rule:evenodd;clip-rule:evenodd;stroke-linejoin:round;stroke-miterlimit:2;">
    <g transform="matrix(1,0,0,1,-1452.93,-79.184)">
        <g transform="matrix(1,0,0,1,15.1989,-6.144)">
            <g transform="matrix(1.22037,0,0,1.22037,-218.429,46.6138)">
                <g transform="matrix(6.55085,0,0,6.55085,1273.82,-38.528)">
                    <path d="M16.267,12.499C16.267,13.484 15.47,14.278 14.489,14.278C13.506,14.278 12.712,13.484 12.712,12.499C12.712,11.519 13.506,10.724 14.489,10.724C15.47,10.724 16.267,11.519 16.267,12.499Z" style="fill:rgb(148,206,26);fill-rule:nonzero;"/>
                </g>
                <g transform="matrix(1.02325,0,0,1.02325,1352.13,26.7823)">
                    <path d="M15.412,19.61C14.121,19.476 12.956,19.158 11.958,18.378C11.834,18.281 11.707,18.187 11.594,18.079C11.158,17.66 11.113,17.18 11.458,16.685C11.754,16.261 12.25,16.148 12.766,16.391C12.865,16.438 12.961,16.497 13.052,16.56C14.911,17.837 17.463,17.873 19.33,16.617C19.515,16.476 19.712,16.36 19.941,16.301C20.386,16.187 20.801,16.35 21.04,16.74C21.314,17.185 21.309,17.619 20.973,17.964C20.457,18.494 19.837,18.877 19.147,19.145C18.495,19.397 17.782,19.524 17.075,19.609C17.182,19.725 17.231,19.782 17.299,19.849C18.258,20.814 19.222,21.773 20.178,22.74C20.504,23.07 20.572,23.479 20.393,23.862C20.196,24.28 19.757,24.556 19.327,24.527C19.054,24.508 18.841,24.372 18.652,24.181C17.927,23.453 17.19,22.738 16.48,21.995C16.274,21.779 16.175,21.82 15.993,22.007C15.264,22.758 14.524,23.496 13.779,24.23C13.445,24.56 13.047,24.619 12.659,24.431C12.247,24.232 11.985,23.811 12.005,23.388C12.018,23.102 12.159,22.883 12.356,22.687C13.305,21.739 14.252,20.788 15.2,19.838C15.263,19.776 15.321,19.708 15.412,19.61Z" style="fill:white;"/>
                </g>
                <g transform="matrix(1.02325,0,0,1.02325,1352.13,26.7823)">
                    <path d="M16.199,16.308C13.895,16.301 12.005,14.39 12.018,12.081C12.031,9.746 13.922,7.866 16.25,7.873C18.582,7.879 20.454,9.787 20.442,12.145C20.431,14.448 18.527,16.316 16.199,16.308ZM18.294,12.087C18.29,10.941 17.377,10.028 16.234,10.027C15.08,10.026 14.159,10.955 14.168,12.111C14.176,13.253 15.097,14.159 16.244,14.155C17.388,14.151 18.297,13.232 18.294,12.087Z" style="fill:white;"/>
                </g>
            </g>
        </g>
    </g>
</svg>
