<?xml version="1.0" encoding="UTF-8" standalone="no"?>
<!DOCTYPE svg PUBLIC "-//W3C//DTD SVG 1.1//EN" "http://www.w3.org/Graphics/SVG/1.1/DTD/svg11.dtd">
<svg width="100%" height="100%" viewBox="0 0 11 17" version="1.1" xmlns="http://www.w3.org/2000/svg" xmlns:xlink="http://www.w3.org/1999/xlink" xml:space="preserve" xmlns:serif="http://www.serif.com/" style="fill-rule:evenodd;clip-rule:evenodd;stroke-linejoin:round;stroke-miterlimit:2;">
    <g transform="matrix(1,0,0,1,-827.991,-3688.23)">
        <g transform="matrix(1,0,0,1,-21.199,332.664)">
            <g transform="matrix(0.614229,0,0,0.614229,-266.213,1277.27)">
                <g transform="matrix(0.294744,0,0,0.294744,1657.04,3307.86)">
                    <path d="M596.273,338.649C596.273,340.94 594.41,342.804 592.12,342.804L546.86,342.804C544.569,342.804 542.706,340.94 542.706,338.649L542.706,264.642C542.706,262.351 544.569,260.487 546.86,260.487L592.12,260.487C594.41,260.487 596.273,262.351 596.273,264.642L596.273,338.649ZM592.12,256.891L546.86,256.891C542.587,256.891 539.11,260.368 539.11,264.642L539.11,338.649C539.11,342.924 542.587,346.4 546.86,346.4L592.12,346.4C596.393,346.4 599.87,342.924 599.87,338.649L599.87,264.642C599.87,260.368 596.393,256.891 592.12,256.891Z" style="fill:rgb(66,66,73);fill-rule:nonzero;"/>
                </g>
                <g transform="matrix(0.294744,0,0,0.294744,1657.04,3307.86)">
                    <path d="M569.489,262.358C569.95,262.358 570.323,261.985 570.323,261.524C570.323,261.063 569.95,260.693 569.489,260.693C569.028,260.693 568.655,261.063 568.655,261.524C568.655,261.985 569.028,262.358 569.489,262.358Z" style="fill:rgb(66,66,73);fill-rule:nonzero;"/>
                </g>
                <g transform="matrix(0.294744,0,0,0.294744,1657.04,3307.86)">
                    <path d="M566.369,265.716L572.611,265.716C573.068,265.716 573.439,265.344 573.439,264.886C573.439,264.429 573.068,264.057 572.611,264.057L566.369,264.057C565.912,264.057 565.54,264.429 565.54,264.886C565.54,265.344 565.912,265.716 566.369,265.716Z" style="fill:rgb(66,66,73);fill-rule:nonzero;"/>
                </g>
                <g transform="matrix(0.294744,0,0,0.294744,1657.04,3307.86)">
                    <path d="M563.581,265.532C563.938,265.532 564.229,265.242 564.229,264.886C564.229,264.528 563.938,264.239 563.581,264.239C563.223,264.239 562.934,264.528 562.934,264.886C562.934,265.242 563.223,265.532 563.581,265.532Z" style="fill:rgb(66,66,73);fill-rule:nonzero;"/>
                </g>
                <g transform="matrix(0.294744,0,0,0.294744,1657.04,3307.86)">
                    <path d="M569.489,340.671C567.687,340.671 566.22,339.205 566.22,337.403C566.22,335.601 567.687,334.134 569.489,334.134C571.293,334.134 572.759,335.601 572.759,337.403C572.759,339.205 571.293,340.671 569.489,340.671ZM569.489,332.335C566.695,332.335 564.422,334.608 564.422,337.403C564.422,340.196 566.695,342.469 569.489,342.469C572.284,342.469 574.557,340.196 574.557,337.403C574.557,334.608 572.284,332.335 569.489,332.335Z" style="fill:rgb(66,66,73);fill-rule:nonzero;"/>
                </g>
                <g transform="matrix(0.294744,0,0,0.294744,1657.04,3307.86)">
                    <path d="M589.821,330.408L549.159,330.408L589.821,269.307L589.821,330.408ZM590.72,267.509L548.26,267.509C547.764,267.509 547.361,267.911 547.361,268.408L547.361,331.308C547.361,331.804 547.764,332.206 548.26,332.206L590.72,332.206C591.217,332.206 591.619,331.804 591.619,331.308L591.619,268.408C591.619,267.911 591.217,267.509 590.72,267.509Z" style="fill:rgb(66,66,73);fill-rule:nonzero;"/>
                </g>
            </g>
        </g>
    </g>
</svg>
