<?xml version="1.0" encoding="UTF-8" standalone="no"?>
<!DOCTYPE svg PUBLIC "-//W3C//DTD SVG 1.1//EN" "http://www.w3.org/Graphics/SVG/1.1/DTD/svg11.dtd">
<svg width="100%" height="100%" viewBox="0 0 30 30" version="1.1" xmlns="http://www.w3.org/2000/svg" xmlns:xlink="http://www.w3.org/1999/xlink" xml:space="preserve" xmlns:serif="http://www.serif.com/" style="fill-rule:evenodd;clip-rule:evenodd;stroke-linejoin:round;stroke-miterlimit:1.41421;">
    <g transform="matrix(1,0,0,1,-1407.44,-78.684)">
        <g transform="matrix(1,0,0,1,15.1989,-6.144)">
            <g transform="matrix(1.22037,0,0,1.22037,-225.633,46.6138)">
                <g transform="matrix(6.55085,0,0,6.55085,1242.86,-38.528)">
                    <path d="M16.267,12.499C16.267,13.484 15.47,14.278 14.489,14.278C13.506,14.278 12.712,13.484 12.712,12.499C12.712,11.519 13.506,10.724 14.489,10.724C15.47,10.724 16.267,11.519 16.267,12.499Z" style="fill:white;fill-rule:nonzero;stroke:rgb(148,206,26);stroke-width:0.13px;"/>
                </g>
                <g transform="matrix(0.348676,0,0,0.348676,1324.2,29.1637)">
                    <path d="M55.327,45.416C56.833,46.887 58.423,48.27 59.774,49.89C60.37,50.609 60.936,51.351 61.368,52.186C61.98,53.372 61.425,54.678 60.361,54.75L53.747,54.746C52.04,54.888 50.68,54.201 49.535,53.035C48.62,52.102 47.771,51.109 46.891,50.145C46.53,49.751 46.152,49.38 45.7,49.087C44.798,48.501 44.014,48.68 43.497,49.622C42.972,50.58 42.853,51.64 42.801,52.708C42.73,54.265 42.26,54.675 40.695,54.746C37.351,54.904 34.178,54.398 31.23,52.712C28.631,51.224 26.615,49.125 24.861,46.749C21.446,42.12 18.83,37.035 16.479,31.808C15.95,30.63 16.337,29.998 17.637,29.976C19.795,29.934 21.952,29.937 24.113,29.973C24.99,29.986 25.57,30.488 25.909,31.317C27.077,34.188 28.505,36.919 30.298,39.451C30.776,40.124 31.263,40.798 31.956,41.273C32.723,41.798 33.307,41.624 33.668,40.77C33.897,40.228 33.997,39.644 34.049,39.064C34.219,37.067 34.242,35.074 33.943,33.085C33.758,31.843 33.059,31.04 31.82,30.805C31.188,30.685 31.282,30.45 31.588,30.088C32.119,29.466 32.62,29.079 33.616,29.079L41.092,29.079C42.269,29.311 42.531,29.84 42.692,31.024L42.698,39.328C42.685,39.787 42.927,41.147 43.753,41.45C44.414,41.666 44.849,41.137 45.245,40.718C47.035,38.819 48.313,36.573 49.454,34.249C49.96,33.226 50.396,32.165 50.818,31.104C51.131,30.317 51.621,29.93 52.508,29.947L59.703,29.954C59.916,29.954 60.132,29.956 60.338,29.992C61.551,30.199 61.883,30.721 61.509,31.904C60.919,33.762 59.771,35.31 58.648,36.865C57.449,38.525 56.165,40.128 54.976,41.798C53.882,43.324 53.969,44.092 55.327,45.416Z" style="fill:white;stroke:rgb(148,206,26);stroke-width:2.35px;"/>
                </g>
            </g>
        </g>
    </g>
</svg>
