<?xml version="1.0" encoding="UTF-8" standalone="no"?>
<!DOCTYPE svg PUBLIC "-//W3C//DTD SVG 1.1//EN" "http://www.w3.org/Graphics/SVG/1.1/DTD/svg11.dtd">
<svg width="100%" height="100%" viewBox="0 0 103 103" version="1.1" xmlns="http://www.w3.org/2000/svg" xmlns:xlink="http://www.w3.org/1999/xlink" xml:space="preserve" xmlns:serif="http://www.serif.com/" style="fill-rule:evenodd;clip-rule:evenodd;stroke-linejoin:round;stroke-miterlimit:2;">
    <g transform="matrix(1,0,0,1,-905.192,-2416.2)">
        <g transform="matrix(2.30972,0,0,2.30972,-4927.88,-2668.91)">
            <g transform="matrix(1,0,0,1,2103.77,160.268)">
                <circle cx="443.89" cy="2063.57" r="22.221" style="fill:rgb(148,206,26);"/>
            </g>
            <g transform="matrix(1,0,0,1,2018.77,-14)">
                <g transform="matrix(0.804524,0,0,0.804524,516.247,2225.19)">
                    <path d="M15.342,0L11.454,0L11.285,0L2.668,9.019L2.668,31.426L28.758,31.426L28.758,0L15.342,0ZM11.465,4.07L11.48,9.085L6.657,9.117L11.465,4.07ZM25.811,28.48L5.614,28.48L5.614,12.07L14.434,12.01L14.408,2.946L25.81,2.946L25.81,28.48L25.811,28.48Z" style="fill:white;fill-rule:nonzero;"/>
                </g>
                <g transform="matrix(0.804524,0,0,0.804524,516.247,2225.19)">
                    <path d="M22.064,15.13L9.494,15.13C8.951,15.13 8.513,15.568 8.513,16.111C8.513,16.654 8.951,17.093 9.494,17.093L22.064,17.093C22.607,17.093 23.046,16.654 23.046,16.111C23.046,15.568 22.607,15.13 22.064,15.13Z" style="fill:white;fill-rule:nonzero;"/>
                </g>
                <g transform="matrix(0.804524,0,0,0.804524,516.247,2225.19)">
                    <path d="M22.064,19.472L9.494,19.472C8.951,19.472 8.513,19.912 8.513,20.454C8.513,20.996 8.951,21.435 9.494,21.435L22.064,21.435C22.607,21.435 23.046,20.996 23.046,20.454C23.048,19.912 22.607,19.472 22.064,19.472Z" style="fill:white;fill-rule:nonzero;"/>
                </g>
                <g transform="matrix(0.804524,0,0,0.804524,516.247,2225.19)">
                    <path d="M22.064,23.814L9.494,23.814C8.951,23.814 8.513,24.253 8.513,24.796C8.513,25.339 8.951,25.778 9.494,25.778L22.064,25.778C22.607,25.778 23.046,25.339 23.046,24.796C23.046,24.253 22.607,23.814 22.064,23.814Z" style="fill:white;fill-rule:nonzero;"/>
                </g>
                <g transform="matrix(0.804524,0,0,0.804524,516.247,2225.19)">
                    <path d="M21.704,8.753C22.258,8.364 22.62,7.725 22.62,6.998C22.62,5.811 21.658,4.85 20.473,4.85C19.286,4.85 18.325,5.812 18.325,6.998C18.325,7.725 18.688,8.365 19.241,8.753C17.93,9.249 16.993,10.502 16.977,11.983L23.967,11.983C23.952,10.501 23.016,9.249 21.704,8.753Z" style="fill:white;fill-rule:nonzero;"/>
                </g>
            </g>
        </g>
    </g>
</svg>
