<?xml version="1.0" encoding="UTF-8" standalone="no"?>
<!DOCTYPE svg PUBLIC "-//W3C//DTD SVG 1.1//EN" "http://www.w3.org/Graphics/SVG/1.1/DTD/svg11.dtd">
<svg width="100%" height="100%" viewBox="0 0 103 103" version="1.1" xmlns="http://www.w3.org/2000/svg" xmlns:xlink="http://www.w3.org/1999/xlink" xml:space="preserve" xmlns:serif="http://www.serif.com/" style="fill-rule:evenodd;clip-rule:evenodd;stroke-linejoin:round;stroke-miterlimit:2;">
    <g transform="matrix(1,0,0,1,-1392.71,-2416.2)">
        <g transform="matrix(2.30972,0,0,2.30972,-4440.36,-3028.21)">
            <g transform="matrix(1,0,0,1,2103.77,315.826)">
                <circle cx="443.89" cy="2063.57" r="22.221" style="fill:rgb(148,206,26);"/>
            </g>
            <g transform="matrix(0.048879,0,0,0.048879,2535.8,2367.53)">
                <path d="M0,81.824L0,403.587L485.411,403.587L485.411,81.824L0,81.824ZM242.708,280.526L43.612,105.691L441.799,105.691L242.708,280.526ZM163.397,242.649L23.867,365.178L23.867,120.119L163.397,242.649ZM181.482,258.533L242.702,312.295L303.922,258.533L441.924,379.72L43.487,379.72L181.482,258.533ZM322.008,242.655L461.543,120.119L461.543,365.178L322.008,242.655Z" style="fill:white;fill-rule:nonzero;stroke:white;stroke-width:17.72px;"/>
            </g>
        </g>
    </g>
</svg>
