<?xml version="1.0" encoding="UTF-8" standalone="no"?>
<!DOCTYPE svg PUBLIC "-//W3C//DTD SVG 1.1//EN" "http://www.w3.org/Graphics/SVG/1.1/DTD/svg11.dtd">
<svg width="100%" height="100%" viewBox="0 0 103 103" version="1.1" xmlns="http://www.w3.org/2000/svg" xmlns:xlink="http://www.w3.org/1999/xlink" xml:space="preserve" xmlns:serif="http://www.serif.com/" style="fill-rule:evenodd;clip-rule:evenodd;stroke-linejoin:round;stroke-miterlimit:2;">
    <g transform="matrix(1,0,0,1,-661.434,-2416.2)">
        <g transform="matrix(2.30972,0,0,2.30972,-5171.63,-2485.34)">
            <g transform="matrix(1,0,0,1,2103.77,80.7869)">
                <circle cx="443.89" cy="2063.57" r="22.221" style="fill:rgb(148,206,26);"/>
            </g>
            <g transform="matrix(1,0,0,1,2036.73,-14)">
                <path d="M517.488,2166.29C517.924,2166.29 518.278,2166.64 518.278,2167.08C518.278,2167.52 517.924,2167.87 517.488,2167.87L507.375,2167.87C506.938,2167.87 506.586,2167.52 506.586,2167.08C506.586,2166.64 506.938,2166.29 507.375,2166.29L517.488,2166.29ZM517.488,2162.8C517.924,2162.8 518.279,2163.15 518.278,2163.59C518.278,2164.03 517.924,2164.38 517.488,2164.38L507.375,2164.38C506.938,2164.38 506.586,2164.03 506.586,2163.59C506.586,2163.15 506.938,2162.8 507.375,2162.8L517.488,2162.8ZM517.488,2159.31C517.924,2159.31 518.278,2159.66 518.278,2160.1C518.278,2160.53 517.924,2160.89 517.488,2160.89L507.375,2160.89C506.938,2160.89 506.586,2160.53 506.586,2160.1C506.586,2159.66 506.938,2159.31 507.375,2159.31L517.488,2159.31ZM517.488,2155.82C517.924,2155.82 518.278,2156.17 518.278,2156.61C518.278,2157.04 517.924,2157.4 517.488,2157.4L507.375,2157.4C506.938,2157.4 506.586,2157.04 506.586,2156.61C506.586,2156.17 506.938,2155.82 507.375,2155.82L517.488,2155.82ZM517.488,2152.33C517.924,2152.33 518.279,2152.68 518.278,2153.12C518.278,2153.55 517.924,2153.91 517.488,2153.91L507.375,2153.91C506.938,2153.91 506.586,2153.55 506.586,2153.12C506.586,2152.68 506.938,2152.33 507.375,2152.33L517.488,2152.33ZM517.488,2148.84C517.924,2148.84 518.278,2149.19 518.278,2149.62C518.278,2150.06 517.924,2150.41 517.488,2150.41L507.375,2150.41C506.938,2150.41 506.586,2150.06 506.586,2149.62C506.586,2149.19 506.938,2148.84 507.375,2148.84L517.488,2148.84Z" style="fill:white;fill-rule:nonzero;"/>
            </g>
            <g transform="matrix(1,0,0,1,2033.73,-14)">
                <path d="M507.488,2166.29C507.924,2166.29 508.278,2166.64 508.278,2167.08C508.278,2167.52 507.924,2167.87 507.488,2167.87L507.375,2167.87C506.938,2167.87 506.586,2167.52 506.586,2167.08C506.586,2166.64 506.938,2166.29 507.375,2166.29L507.488,2166.29ZM507.488,2162.8C507.924,2162.8 508.279,2163.15 508.278,2163.59C508.278,2164.03 507.924,2164.38 507.488,2164.38L507.375,2164.38C506.938,2164.38 506.586,2164.03 506.586,2163.59C506.586,2163.15 506.938,2162.8 507.375,2162.8L507.488,2162.8ZM507.488,2159.31C507.924,2159.31 508.278,2159.66 508.278,2160.1C508.278,2160.53 507.924,2160.89 507.488,2160.89L507.375,2160.89C506.938,2160.89 506.586,2160.53 506.586,2160.1C506.586,2159.66 506.938,2159.31 507.375,2159.31L507.488,2159.31ZM507.488,2155.82C507.924,2155.82 508.278,2156.17 508.278,2156.61C508.278,2157.04 507.924,2157.4 507.488,2157.4L507.375,2157.4C506.938,2157.4 506.586,2157.04 506.586,2156.61C506.586,2156.17 506.938,2155.82 507.375,2155.82L507.488,2155.82ZM507.488,2152.33C507.924,2152.33 508.279,2152.68 508.278,2153.12C508.278,2153.55 507.924,2153.91 507.488,2153.91L507.375,2153.91C506.938,2153.91 506.586,2153.55 506.586,2153.12C506.586,2152.68 506.938,2152.33 507.375,2152.33L507.488,2152.33ZM507.488,2148.84C507.924,2148.84 508.278,2149.19 508.278,2149.62C508.278,2150.06 507.924,2150.41 507.488,2150.41L507.375,2150.41C506.938,2150.41 506.586,2150.06 506.586,2149.62C506.586,2149.19 506.938,2148.84 507.375,2148.84L507.488,2148.84Z" style="fill:white;fill-rule:nonzero;"/>
            </g>
        </g>
    </g>
</svg>
